# xmcd
#
# Track frame offsets:
#	180
#	11615
#	25819
#	37585
#	50072
#	62271
#	76545
#	92359
#	107003
#	120601
#	134675
#	144849
#	156012
#	169404
#	180590
#	192619
#	205087
#	216418
#	230114
#	243452
#
# Disc length: 3428 seconds
#
# Revision: 2
# Processed by: cddbd v1.5.2PL0 Copyright (c) Steve Scherf et al.
# Submitted via: CDex 1.70beta2
#
DISCID=0a0d6214
DTITLE=Various Artist - Beer Garden Blues
DYEAR=2005
DGENRE=Blues
TTITLE0=Bukka White - Aberdeen Mississippi Blues
TTITLE1=Muddy Waters - Burr Clover Blues
TTITLE2=T-Bone Walker - Bobby Sox Blues
TTITLE3=Lightnin' Hopkins - Fast Mail Rambler
TTITLE4=Sonny Terry - Beer Garden Blues
TTITLE5=Big Boy' Crudup - Crudup's Vicksburg Blues
TTITLE6=John Lee Hooker - Good Business
TTITLE7=John Lee Hooker - Christmas Time Blues
TTITLE8=T-Bone Walker - Don't Give Me the Runaround
TTITLE9=John Lee Hooker - Catfish
TTITLE10=John Lee Hooker - Feed Her All Night
TTITLE11=Big Joe Turner - Lucille
TTITLE12=John Lee Hooker - Wandering Blues
TTITLE13=B. B. King - She's Dynamite
TTITLE14=Tiny Grimes - Hawaiian Boogie
TTITLE15=John Lee Hooker - Leave My Wife Alone
TTITLE16=Martha Davis - Player Piano Boogie
TTITLE17=John Lee Hooker - Apologize
TTITLE18=Ray Charles - the Midnight Hour
TTITLE19=John Lee Hooker - I Don't Want Your Money
EXTD=YEAR: 2005
EXTT0=
EXTT1=
EXTT2=
EXTT3=
EXTT4=
EXTT5=
EXTT6=
EXTT7=
EXTT8=
EXTT9=
EXTT10=
EXTT11=
EXTT12=
EXTT13=
EXTT14=
EXTT15=
EXTT16=
EXTT17=
EXTT18=
EXTT19=
PLAYORDER=
